<svg width="992" height="275" viewBox="0 0 992 275" fill="none" xmlns="http://www.w3.org/2000/svg">
<g clip-path="url(#clip0_761_4449)">
<path d="M558.75 124.512V80.6759H735.717V124.512H665.904V273.878H626.939V124.512H558.75Z" fill="#1F366C"/>
<path d="M938.66 -0.501465H922.425V57.9462H977.625V41.7107H938.66V-0.501465Z" fill="#60BDDC"/>
<path d="M915.93 -0.501465H899.695V80.6759H977.625V64.4404H915.93V-0.501465Z" fill="#60BDDC"/>
<path d="M857.483 165.1H873.718V106.653H818.517V122.888H857.483V165.1Z" fill="#F5121A"/>
<path d="M880.212 165.1H896.448V83.923H818.517V100.158H880.212V165.1Z" fill="#F5121A"/>
<path d="M60.3211 83.923H22.9795C24.0619 112.606 22.9795 177.115 22.9795 205.689C22.9795 241.407 48.9562 273.878 112.275 273.878C175.593 273.878 196.699 225.172 196.699 205.689V83.923H159.357V200.818C159.357 221.924 151.24 239.783 109.027 239.783C66.8153 239.783 58.6975 215.43 58.6975 200.818C58.6975 189.129 59.7799 118.017 60.3211 83.923Z" fill="#1F366C"/>
<path d="M266.512 275.501V80.6759H334.701L381.784 210.56L428.866 80.6759H497.055V275.501H456.467V119.641L402.89 275.501H362.301L308.724 122.888V275.501H266.512Z" fill="#1F366C"/>
</g>
<defs>
<clipPath id="clip0_761_4449">
<rect width="992" height="275" fill="white"/>
</clipPath>
</defs>
</svg>
