<svg width="1438" height="445" viewBox="0 0 1438 445" fill="none" xmlns="http://www.w3.org/2000/svg">
<path d="M792.75 209.512V165.676H969.717V209.512H899.904V358.878H860.939V209.512H792.75Z" fill="white"/>
<path d="M1172.66 84.4985H1156.42V142.946H1211.63V126.711H1172.66V84.4985Z" fill="#60BDDC"/>
<path d="M1149.93 84.4985H1133.69V165.676H1211.63V149.44H1149.93V84.4985Z" fill="#60BDDC"/>
<path d="M1091.48 250.1H1107.72V191.653H1052.52V207.888H1091.48V250.1Z" fill="#F5121A"/>
<path d="M1114.21 250.1H1130.45V168.923H1052.52V185.158H1114.21V250.1Z" fill="#F5121A"/>
<path d="M294.321 168.923H256.98C258.062 197.606 256.98 262.115 256.98 290.689C256.98 326.407 282.956 358.878 346.275 358.878C409.593 358.878 430.699 310.171 430.699 290.689V168.923H393.358V285.818C393.358 306.924 385.24 324.783 343.028 324.783C300.815 324.783 292.698 300.43 292.698 285.818C292.698 274.129 293.78 203.017 294.321 168.923Z" fill="white"/>
<path d="M500.512 360.501V165.676H568.701L615.783 295.56L662.866 165.676H731.055V360.501H690.467V204.641L636.89 360.501H596.301L542.724 207.888V360.501H500.512Z" fill="white"/>
</svg>
