<svg width="1004" height="480" viewBox="0 0 1004 480" fill="none" xmlns="http://www.w3.org/2000/svg">
<g clip-path="url(#clip0_761_4462)">
<path d="M564.75 124.512V80.6759H741.717V124.512H671.904V273.878H632.939V124.512H564.75Z" fill="#1F366C"/>
<path d="M944.66 -0.501465H928.425V57.9462H983.625V41.7107H944.66V-0.501465Z" fill="#60BDDC"/>
<path d="M921.93 -0.501465H905.695V80.6759H983.625V64.4404H921.93V-0.501465Z" fill="#60BDDC"/>
<path d="M863.483 165.1H879.718V106.653H824.517V122.888H863.483V165.1Z" fill="#F5121A"/>
<path d="M886.212 165.1H902.448V83.923H824.517V100.158H886.212V165.1Z" fill="#F5121A"/>
<path d="M66.3211 83.923H28.9795C30.0619 112.606 28.9795 177.115 28.9795 205.689C28.9795 241.407 54.9562 273.878 118.275 273.878C181.593 273.878 202.699 225.172 202.699 205.689V83.923H165.357V200.818C165.357 221.924 157.24 239.783 115.027 239.783C72.8153 239.783 64.6975 215.43 64.6975 200.818C64.6975 189.129 65.7799 118.017 66.3211 83.923Z" fill="#1F366C"/>
<path d="M272.512 275.501V80.6759H340.701L387.784 210.56L434.866 80.6759H503.055V275.501H462.467V119.641L408.89 275.501H368.301L314.724 122.888V275.501H272.512Z" fill="#1F366C"/>
</g>
<path d="M27.3346 403H20.4226V375.832H11.5906V369.4H36.1186V375.832H27.3346V403ZM66.5446 403H59.1046L53.3446 391.48H47.8246V403H40.9126V369.4H54.0166C56.2566 369.4 58.2406 369.88 59.9686 370.84C61.6966 371.8 63.0246 373.112 63.9526 374.776C64.9126 376.44 65.3926 378.328 65.3926 380.44C65.3926 382.552 64.8966 384.472 63.9046 386.2C62.9126 387.896 61.5526 389.208 59.8246 390.136L66.5446 403ZM47.8246 375.592V385.288H53.7766C55.1846 385.288 56.3206 384.856 57.1846 383.992C58.0486 383.096 58.4806 381.912 58.4806 380.44C58.4806 378.968 58.0486 377.8 57.1846 376.936C56.3206 376.04 55.1846 375.592 53.7766 375.592H47.8246ZM104.049 367.288C104.049 369.016 103.585 370.392 102.657 371.416C101.761 372.44 100.497 373.016 98.8651 373.144V390.136C98.8651 392.728 98.2891 395.064 97.1371 397.144C95.9851 399.192 94.3691 400.808 92.2891 401.992C90.2411 403.144 87.9211 403.72 85.3291 403.72C82.7051 403.72 80.3531 403.144 78.2731 401.992C76.2251 400.808 74.6251 399.192 73.4731 397.144C72.3211 395.064 71.7451 392.728 71.7451 390.136V369.4H78.6571V390.088C78.6571 392.2 79.2811 393.928 80.5291 395.272C81.8091 396.616 83.4091 397.288 85.3291 397.288C86.5451 397.288 87.6491 396.984 88.6411 396.376C89.6651 395.736 90.4651 394.872 91.0411 393.784C91.6491 392.696 91.9531 391.464 91.9531 390.088V369.4H97.5691C98.2091 369.4 98.6891 369.192 99.0091 368.776C99.3611 368.36 99.5371 367.768 99.5371 367C99.5371 366.232 99.3131 365.144 98.8651 363.736H103.329C103.809 365.08 104.049 366.264 104.049 367.288ZM133.406 373.192C135.102 374.792 136.414 376.712 137.342 378.952C138.27 381.192 138.734 383.608 138.734 386.2C138.734 389.432 138.014 392.392 136.574 395.08C135.134 397.736 133.134 399.848 130.574 401.416C128.014 402.952 125.15 403.72 121.982 403.72C118.782 403.72 115.902 402.952 113.342 401.416C110.814 399.848 108.83 397.736 107.39 395.08C105.95 392.392 105.23 389.432 105.23 386.2C105.23 382.936 105.95 379.976 107.39 377.32C108.83 374.632 110.814 372.52 113.342 370.984C115.902 369.448 118.782 368.68 121.982 368.68C124.254 368.68 126.43 369.112 128.51 369.976H129.71C131.278 369.976 132.062 369.16 132.062 367.528C132.062 366.664 131.838 365.56 131.39 364.216H135.95C136.398 365.496 136.622 366.68 136.622 367.768C136.622 369.08 136.35 370.216 135.806 371.176C135.262 372.104 134.462 372.776 133.406 373.192ZM121.982 397.336C123.806 397.336 125.454 396.856 126.926 395.896C128.43 394.936 129.598 393.608 130.43 391.912C131.294 390.184 131.726 388.28 131.726 386.2C131.726 384.088 131.294 382.184 130.43 380.488C129.598 378.792 128.43 377.464 126.926 376.504C125.454 375.512 123.806 375.016 121.982 375.016C120.158 375.016 118.494 375.512 116.99 376.504C115.486 377.464 114.302 378.792 113.438 380.488C112.606 382.184 112.19 384.088 112.19 386.2C112.19 388.312 112.606 390.216 113.438 391.912C114.302 393.608 115.486 394.936 116.99 395.896C118.494 396.856 120.158 397.336 121.982 397.336ZM124.958 365.32H119.822L114.782 358.12H121.406L124.958 365.32ZM151.604 403H144.788V369.4H150.788L165.716 390.76H165.908V369.4H172.676V403H166.724L151.748 381.64H151.604V403ZM195.529 403.72C192.329 403.72 189.449 402.952 186.889 401.416C184.361 399.848 182.377 397.736 180.937 395.08C179.497 392.392 178.777 389.432 178.777 386.2C178.777 382.936 179.497 379.976 180.937 377.32C182.377 374.632 184.361 372.52 186.889 370.984C189.449 369.448 192.329 368.68 195.529 368.68C198.473 368.68 201.049 369.304 203.257 370.552C205.497 371.768 207.353 373.336 208.825 375.256L204.121 379.24C202.969 377.928 201.721 376.904 200.377 376.168C199.065 375.4 197.465 375.016 195.577 375.016C193.721 375.016 192.041 375.512 190.537 376.504C189.033 377.464 187.849 378.792 186.985 380.488C186.153 382.184 185.737 384.088 185.737 386.2C185.737 388.28 186.153 390.168 186.985 391.864C187.849 393.56 189.033 394.904 190.537 395.896C192.041 396.856 193.721 397.336 195.577 397.336C197.049 397.336 198.393 397.064 199.609 396.52C200.857 395.944 201.785 395.32 202.393 394.648V390.136H196.249V384.856H209.065V397.144C207.817 398.904 205.977 400.44 203.545 401.752C201.113 403.064 198.441 403.72 195.529 403.72ZM237.598 369.4C240.766 369.4 243.614 370.152 246.142 371.656C248.67 373.128 250.654 375.16 252.094 377.752C253.534 380.312 254.254 383.128 254.254 386.2C254.254 389.272 253.534 392.088 252.094 394.648C250.654 397.208 248.67 399.24 246.142 400.744C243.614 402.248 240.766 403 237.598 403H226.654V387.976H223.102V384.328H226.654V369.4H237.598ZM237.598 396.76C239.454 396.76 241.118 396.312 242.59 395.416C244.062 394.52 245.214 393.272 246.046 391.672C246.878 390.072 247.294 388.248 247.294 386.2C247.294 384.152 246.878 382.328 246.046 380.728C245.214 379.096 244.062 377.848 242.59 376.984C241.118 376.088 239.454 375.64 237.598 375.64H233.566V384.328H239.278V387.976H233.566V396.76H237.598ZM263.187 403H255.939L267.843 369.4H275.427L287.283 403H279.939L277.443 395.368H265.635L263.187 403ZM271.491 376.888L267.459 389.608H275.667L271.635 376.888H271.491ZM271.635 413.704C270.611 413.704 269.747 413.368 269.043 412.696C268.371 412.024 268.035 411.192 268.035 410.2C268.035 409.24 268.387 408.408 269.091 407.704C269.795 407.032 270.643 406.696 271.635 406.696C272.627 406.696 273.475 407.032 274.179 407.704C274.883 408.408 275.235 409.24 275.235 410.2C275.235 411.192 274.883 412.024 274.179 412.696C273.507 413.368 272.659 413.704 271.635 413.704ZM298.512 403H291.6V369.4H298.512V403ZM323.543 403H316.631V369.4H323.543V382.696H336.167V369.4H343.079V403H336.167V389.128H323.543V403ZM365.92 403.72C362.72 403.72 359.84 402.952 357.28 401.416C354.752 399.848 352.768 397.736 351.328 395.08C349.888 392.392 349.168 389.432 349.168 386.2C349.168 382.936 349.888 379.976 351.328 377.32C352.768 374.632 354.752 372.52 357.28 370.984C359.84 369.448 362.72 368.68 365.92 368.68C369.088 368.68 371.952 369.464 374.512 371.032C377.072 372.568 379.072 374.68 380.512 377.368C381.952 380.024 382.672 382.968 382.672 386.2C382.672 389.432 381.952 392.392 380.512 395.08C379.072 397.736 377.072 399.848 374.512 401.416C371.952 402.952 369.088 403.72 365.92 403.72ZM365.92 397.336C367.744 397.336 369.392 396.856 370.864 395.896C372.368 394.936 373.536 393.608 374.368 391.912C375.232 390.184 375.664 388.28 375.664 386.2C375.664 384.088 375.232 382.184 374.368 380.488C373.536 378.792 372.368 377.464 370.864 376.504C369.392 375.512 367.744 375.016 365.92 375.016C364.096 375.016 362.432 375.512 360.928 376.504C359.424 377.464 358.24 378.792 357.376 380.488C356.544 382.184 356.128 384.088 356.128 386.2C356.128 388.312 356.544 390.216 357.376 391.912C358.24 393.608 359.424 394.936 360.928 395.896C362.432 396.856 364.096 397.336 365.92 397.336ZM365.872 413.704C364.848 413.704 363.984 413.368 363.28 412.696C362.608 412.024 362.272 411.192 362.272 410.2C362.272 409.24 362.624 408.408 363.328 407.704C364.032 407.032 364.88 406.696 365.872 406.696C366.864 406.696 367.712 407.032 368.416 407.704C369.12 408.408 369.472 409.24 369.472 410.2C369.472 411.192 369.12 412.024 368.416 412.696C367.744 413.368 366.896 413.704 365.872 413.704ZM403.701 403.72C400.501 403.72 397.621 402.952 395.061 401.416C392.533 399.848 390.549 397.736 389.109 395.08C387.669 392.392 386.949 389.432 386.949 386.2C386.949 382.936 387.669 379.976 389.109 377.32C390.549 374.632 392.533 372.52 395.061 370.984C397.621 369.448 400.501 368.68 403.701 368.68C406.645 368.68 409.221 369.304 411.429 370.552C413.669 371.768 415.525 373.336 416.997 375.256L412.293 379.24C411.141 377.928 409.893 376.904 408.549 376.168C407.237 375.4 405.637 375.016 403.749 375.016C401.861 375.016 400.165 375.512 398.661 376.504C397.189 377.464 396.021 378.792 395.157 380.488C394.325 382.184 393.909 384.088 393.909 386.2C393.909 388.28 394.325 390.168 395.157 391.864C396.021 393.56 397.189 394.904 398.661 395.896C400.165 396.856 401.861 397.336 403.749 397.336C405.637 397.336 407.269 396.952 408.645 396.184C410.021 395.416 411.301 394.376 412.485 393.064L417.189 397C415.685 398.984 413.797 400.6 411.525 401.848C409.285 403.096 406.677 403.72 403.701 403.72ZM462.509 405.16C463.181 405.16 463.837 405.08 464.477 404.92V410.776C463.677 410.936 462.941 411.016 462.269 411.016C460.221 411.016 458.349 410.648 456.653 409.912C454.957 409.176 453.517 408.232 452.333 407.08C451.181 405.96 450.317 404.792 449.741 403.576C448.941 403.672 448.157 403.72 447.389 403.72C444.189 403.72 441.309 402.952 438.749 401.416C436.221 399.848 434.237 397.736 432.797 395.08C431.357 392.392 430.637 389.432 430.637 386.2C430.637 382.936 431.357 379.976 432.797 377.32C434.237 374.632 436.221 372.52 438.749 370.984C441.309 369.448 444.189 368.68 447.389 368.68C450.557 368.68 453.421 369.464 455.981 371.032C458.541 372.568 460.541 374.68 461.981 377.368C463.421 380.024 464.141 382.968 464.141 386.2C464.141 389.496 463.389 392.504 461.885 395.224C460.381 397.912 458.333 400.024 455.741 401.56C456.221 402.52 457.069 403.352 458.285 404.056C459.501 404.792 460.909 405.16 462.509 405.16ZM447.389 397.336C449.213 397.336 450.861 396.856 452.333 395.896C453.837 394.936 455.005 393.608 455.837 391.912C456.701 390.184 457.133 388.28 457.133 386.2C457.133 384.088 456.701 382.184 455.837 380.488C455.005 378.792 453.837 377.464 452.333 376.504C450.861 375.512 449.213 375.016 447.389 375.016C445.565 375.016 443.901 375.512 442.397 376.504C440.893 377.464 439.709 378.792 438.845 380.488C438.013 382.184 437.597 384.088 437.597 386.2C437.597 388.312 438.013 390.216 438.845 391.912C439.709 393.608 440.893 394.936 442.397 395.896C443.901 396.856 445.565 397.336 447.389 397.336ZM483.298 403.72C480.674 403.72 478.322 403.144 476.242 401.992C474.194 400.808 472.594 399.192 471.442 397.144C470.29 395.064 469.714 392.728 469.714 390.136V369.4H476.626V390.088C476.626 392.2 477.25 393.928 478.498 395.272C479.778 396.616 481.378 397.288 483.298 397.288C484.514 397.288 485.618 396.984 486.61 396.376C487.634 395.736 488.434 394.872 489.01 393.784C489.618 392.696 489.922 391.464 489.922 390.088V369.4H496.834V390.136C496.834 392.728 496.258 395.064 495.106 397.144C493.954 399.192 492.338 400.808 490.258 401.992C488.21 403.144 485.89 403.72 483.298 403.72ZM507.077 403H499.829L511.733 369.4H519.317L531.173 403H523.829L521.333 395.368H509.525L507.077 403ZM515.381 376.888L511.349 389.608H519.557L515.525 376.888H515.381ZM513.317 365.656C513.861 364.504 514.133 363.384 514.133 362.296C514.133 361.688 513.957 361.208 513.605 360.856C513.285 360.472 512.805 360.28 512.165 360.28C511.237 360.28 510.453 360.44 509.813 360.76V357.16C510.965 356.616 512.213 356.344 513.557 356.344C515.125 356.344 516.373 356.792 517.301 357.688C518.229 358.552 518.693 359.704 518.693 361.144C518.693 362.04 518.565 362.888 518.309 363.688C518.085 364.488 517.829 365.144 517.541 365.656H513.317ZM542.307 403H535.491V369.4H541.491L556.419 390.76H556.611V369.4H563.379V403H557.427L542.451 381.64H542.307V403ZM602.498 403H581.522V369.4H588.434V396.568H602.498V403ZM619.125 403H612.213V391.288L600.981 369.4H608.709L615.669 383.896H615.861L622.725 369.4H630.309L619.125 391.288V403ZM617.829 365.32H612.741L616.293 358.12H622.917L617.829 365.32ZM657.591 403H650.007L638.679 369.4H646.023L653.799 394.6H653.943L661.767 369.4H668.919L657.591 403ZM674.609 403H667.361L679.265 369.4H686.849L698.705 403H691.361L688.865 395.368H677.057L674.609 403ZM682.913 376.888L678.881 389.608H687.089L683.057 376.888H682.913ZM686.033 365.32H680.897L675.857 358.12H682.481L686.033 365.32ZM726.904 403.72C723.704 403.72 720.824 402.952 718.264 401.416C715.736 399.848 713.752 397.736 712.312 395.08C710.872 392.392 710.152 389.432 710.152 386.2C710.152 382.936 710.872 379.976 712.312 377.32C713.752 374.632 715.736 372.52 718.264 370.984C720.824 369.448 723.704 368.68 726.904 368.68C729.848 368.68 732.424 369.304 734.632 370.552C736.872 371.768 738.728 373.336 740.2 375.256L735.496 379.24C734.344 377.928 733.096 376.904 731.752 376.168C730.44 375.4 728.84 375.016 726.952 375.016C725.064 375.016 723.368 375.512 721.864 376.504C720.392 377.464 719.224 378.792 718.36 380.488C717.528 382.184 717.112 384.088 717.112 386.2C717.112 388.28 717.528 390.168 718.36 391.864C719.224 393.56 720.392 394.904 721.864 395.896C723.368 396.856 725.064 397.336 726.952 397.336C728.84 397.336 730.472 396.952 731.848 396.184C733.224 395.416 734.504 394.376 735.688 393.064L740.392 397C738.888 398.984 737 400.6 734.728 401.848C732.488 403.096 729.88 403.72 726.904 403.72ZM759.482 403.72C756.282 403.72 753.402 402.952 750.842 401.416C748.314 399.848 746.33 397.736 744.89 395.08C743.45 392.392 742.73 389.432 742.73 386.2C742.73 382.936 743.45 379.976 744.89 377.32C746.33 374.632 748.314 372.52 750.842 370.984C753.402 369.448 756.282 368.68 759.482 368.68C762.65 368.68 765.514 369.464 768.074 371.032C770.634 372.568 772.634 374.68 774.074 377.368C775.514 380.024 776.234 382.968 776.234 386.2C776.234 389.432 775.514 392.392 774.074 395.08C772.634 397.736 770.634 399.848 768.074 401.416C765.514 402.952 762.65 403.72 759.482 403.72ZM759.482 397.336C761.306 397.336 762.954 396.856 764.426 395.896C765.93 394.936 767.098 393.608 767.93 391.912C768.794 390.184 769.226 388.28 769.226 386.2C769.226 384.088 768.794 382.184 767.93 380.488C767.098 378.792 765.93 377.464 764.426 376.504C762.954 375.512 761.306 375.016 759.482 375.016C757.658 375.016 755.994 375.512 754.49 376.504C752.986 377.464 751.802 378.792 750.938 380.488C750.106 382.184 749.69 384.088 749.69 386.2C749.69 388.312 750.106 390.216 750.938 391.912C751.802 393.608 752.986 394.936 754.49 395.896C755.994 396.856 757.658 397.336 759.482 397.336ZM756.698 365.32H751.082L756.65 358.12H762.218L767.786 365.32H762.17L759.482 361.72H759.386L756.698 365.32ZM789.104 403H782.288V369.4H788.288L803.216 390.76H803.408V369.4H810.176V403H804.224L789.248 381.64H789.104V403ZM833.029 403.72C829.829 403.72 826.949 402.952 824.389 401.416C821.861 399.848 819.877 397.736 818.437 395.08C816.997 392.392 816.277 389.432 816.277 386.2C816.277 382.936 816.997 379.976 818.437 377.32C819.877 374.632 821.861 372.52 824.389 370.984C826.949 369.448 829.829 368.68 833.029 368.68C835.973 368.68 838.549 369.304 840.757 370.552C842.997 371.768 844.853 373.336 846.325 375.256L841.621 379.24C840.469 377.928 839.221 376.904 837.877 376.168C836.565 375.4 834.965 375.016 833.077 375.016C831.221 375.016 829.541 375.512 828.037 376.504C826.533 377.464 825.349 378.792 824.485 380.488C823.653 382.184 823.237 384.088 823.237 386.2C823.237 388.28 823.653 390.168 824.485 391.864C825.349 393.56 826.533 394.904 828.037 395.896C829.541 396.856 831.221 397.336 833.077 397.336C834.549 397.336 835.893 397.064 837.109 396.52C838.357 395.944 839.285 395.32 839.893 394.648V390.136H833.749V384.856H846.565V397.144C845.317 398.904 843.477 400.44 841.045 401.752C838.613 403.064 835.941 403.72 833.029 403.72ZM870.01 403H863.194V369.4H869.194L884.122 390.76H884.314V369.4H891.082V403H885.13L870.154 381.64H870.01V403ZM913.935 403.72C910.735 403.72 907.855 402.952 905.295 401.416C902.767 399.848 900.783 397.736 899.343 395.08C897.903 392.392 897.183 389.432 897.183 386.2C897.183 382.936 897.903 379.976 899.343 377.32C900.783 374.632 902.767 372.52 905.295 370.984C907.855 369.448 910.735 368.68 913.935 368.68C916.879 368.68 919.455 369.304 921.663 370.552C923.903 371.768 925.759 373.336 927.231 375.256L922.527 379.24C921.375 377.928 920.127 376.904 918.783 376.168C917.471 375.4 915.871 375.016 913.983 375.016C912.127 375.016 910.447 375.512 908.943 376.504C907.439 377.464 906.255 378.792 905.391 380.488C904.559 382.184 904.143 384.088 904.143 386.2C904.143 388.28 904.559 390.168 905.391 391.864C906.255 393.56 907.439 394.904 908.943 395.896C910.447 396.856 912.127 397.336 913.983 397.336C915.455 397.336 916.799 397.064 918.015 396.52C919.263 395.944 920.191 395.32 920.799 394.648V390.136H914.655V384.856H927.471V397.144C926.223 398.904 924.383 400.44 921.951 401.752C919.519 403.064 916.847 403.72 913.935 403.72ZM940.746 403H933.834V369.4H940.746V382.696H953.37V369.4H960.282V403H953.37V389.128H940.746V403ZM991.235 403H968.147V369.4H990.755V375.64H975.059V382.792H987.299V388.792H975.059V396.76H991.235V403ZM979.523 413.704C978.499 413.704 977.635 413.368 976.931 412.696C976.259 412.024 975.923 411.192 975.923 410.2C975.923 409.24 976.275 408.408 976.979 407.704C977.683 407.032 978.531 406.696 979.523 406.696C980.515 406.696 981.363 407.032 982.067 407.704C982.771 408.408 983.123 409.24 983.123 410.2C983.123 411.192 982.771 412.024 982.067 412.696C981.395 413.368 980.547 413.704 979.523 413.704ZM976.835 365.32H971.219L976.787 358.12H982.355L987.923 365.32H982.307L979.619 361.72H979.523L976.835 365.32ZM225.733 464H218.821V436.832H209.989V430.4H234.517V436.832H225.733V464ZM246.223 464H239.311V430.4H246.223V443.696H258.847V430.4H265.759V464H258.847V450.128H246.223V464ZM277.32 464H270.072L281.976 430.4H289.56L301.416 464H294.072L291.576 456.368H279.768L277.32 464ZM285.624 437.888L281.592 450.608H289.8L285.768 437.888H285.624ZM288.744 426.32H283.608L278.568 419.12H285.192L288.744 426.32ZM312.549 464H305.733V430.4H311.733L326.661 451.76H326.853V430.4H333.621V464H327.669L312.693 442.64H312.549V464ZM348.411 464H341.499V430.4H348.411V443.696H361.035V430.4H367.947V464H361.035V450.128H348.411V464ZM386.077 464V430.4H398.509C400.781 430.4 402.797 430.896 404.557 431.888C406.349 432.88 407.725 434.24 408.685 435.968C409.677 437.696 410.173 439.632 410.173 441.776C410.173 443.92 409.677 445.856 408.685 447.584C407.725 449.312 406.349 450.672 404.557 451.664C402.797 452.656 400.781 453.152 398.509 453.152H392.989V464H386.077ZM398.365 446.912C399.805 446.912 400.973 446.432 401.869 445.472C402.797 444.48 403.261 443.248 403.261 441.776C403.261 440.304 402.797 439.088 401.869 438.128C400.973 437.136 399.805 436.64 398.365 436.64H392.989V446.912H398.365ZM422.286 464H415.374V430.4H422.286V443.696H434.91V430.4H441.822V464H434.91V450.128H422.286V464ZM464.662 464.72C461.462 464.72 458.582 463.952 456.022 462.416C453.494 460.848 451.51 458.736 450.07 456.08C448.63 453.392 447.91 450.432 447.91 447.2C447.91 443.936 448.63 440.976 450.07 438.32C451.51 435.632 453.494 433.52 456.022 431.984C458.582 430.448 461.462 429.68 464.662 429.68C467.83 429.68 470.694 430.464 473.254 432.032C475.814 433.568 477.814 435.68 479.254 438.368C480.694 441.024 481.414 443.968 481.414 447.2C481.414 450.432 480.694 453.392 479.254 456.08C477.814 458.736 475.814 460.848 473.254 462.416C470.694 463.952 467.83 464.72 464.662 464.72ZM464.662 458.336C466.486 458.336 468.134 457.856 469.606 456.896C471.11 455.936 472.278 454.608 473.11 452.912C473.974 451.184 474.406 449.28 474.406 447.2C474.406 445.088 473.974 443.184 473.11 441.488C472.278 439.792 471.11 438.464 469.606 437.504C468.134 436.512 466.486 436.016 464.662 436.016C462.838 436.016 461.174 436.512 459.67 437.504C458.166 438.464 456.982 439.792 456.118 441.488C455.286 443.184 454.87 445.088 454.87 447.2C454.87 449.312 455.286 451.216 456.118 452.912C456.982 454.608 458.166 455.936 459.67 456.896C461.174 457.856 462.838 458.336 464.662 458.336ZM474.022 421.76H469.798L472.726 415.28H478.054L474.022 421.76ZM462.022 427.28H456.598L461.926 420.272H467.35L472.678 427.28H467.254L464.614 423.536L462.022 427.28ZM504.645 464H497.733V430.4H504.645V443.696H517.269V430.4H524.181V464H517.269V450.128H504.645V464ZM547.021 464.72C543.821 464.72 540.941 463.952 538.381 462.416C535.853 460.848 533.869 458.736 532.429 456.08C530.989 453.392 530.269 450.432 530.269 447.2C530.269 443.936 530.989 440.976 532.429 438.32C533.869 435.632 535.853 433.52 538.381 431.984C540.941 430.448 543.821 429.68 547.021 429.68C550.189 429.68 553.053 430.464 555.613 432.032C558.173 433.568 560.173 435.68 561.613 438.368C563.053 441.024 563.773 443.968 563.773 447.2C563.773 450.432 563.053 453.392 561.613 456.08C560.173 458.736 558.173 460.848 555.613 462.416C553.053 463.952 550.189 464.72 547.021 464.72ZM547.021 458.336C548.845 458.336 550.493 457.856 551.965 456.896C553.469 455.936 554.637 454.608 555.469 452.912C556.333 451.184 556.765 449.28 556.765 447.2C556.765 445.088 556.333 443.184 555.469 441.488C554.637 439.792 553.469 438.464 551.965 437.504C550.493 436.512 548.845 436.016 547.021 436.016C545.197 436.016 543.533 436.512 542.029 437.504C540.525 438.464 539.341 439.792 538.477 441.488C537.645 443.184 537.229 445.088 537.229 447.2C537.229 449.312 537.645 451.216 538.477 452.912C539.341 454.608 540.525 455.936 542.029 456.896C543.533 457.856 545.197 458.336 547.021 458.336ZM557.533 421.76H553.357L549.277 415.28H554.653L557.533 421.76ZM544.333 427.28H538.957L544.285 420.272H549.709L555.037 427.28H549.613L546.973 423.536L544.333 427.28ZM595.068 464.72C591.868 464.72 588.988 463.952 586.428 462.416C583.9 460.848 581.916 458.736 580.476 456.08C579.036 453.392 578.316 450.432 578.316 447.2C578.316 443.936 579.036 440.976 580.476 438.32C581.916 435.632 583.9 433.52 586.428 431.984C588.988 430.448 591.868 429.68 595.068 429.68C598.012 429.68 600.588 430.304 602.796 431.552C605.036 432.768 606.892 434.336 608.364 436.256L603.66 440.24C602.508 438.928 601.26 437.904 599.916 437.168C598.604 436.4 597.004 436.016 595.116 436.016C593.228 436.016 591.532 436.512 590.028 437.504C588.556 438.464 587.388 439.792 586.524 441.488C585.692 443.184 585.276 445.088 585.276 447.2C585.276 449.28 585.692 451.168 586.524 452.864C587.388 454.56 588.556 455.904 590.028 456.896C591.532 457.856 593.228 458.336 595.116 458.336C597.004 458.336 598.636 457.952 600.012 457.184C601.388 456.416 602.668 455.376 603.852 454.064L608.556 458C607.052 459.984 605.164 461.6 602.892 462.848C600.652 464.096 598.044 464.72 595.068 464.72ZM620.426 464H613.514V430.4H620.426V443.696H633.05V430.4H639.962V464H633.05V450.128H620.426V464ZM654.739 464H647.827V430.4H654.739V464ZM653.395 426.32H648.307L651.859 419.12H658.483L653.395 426.32ZM679.77 464H672.858V430.4H679.098L689.466 444.992H689.562L699.978 430.4H706.074V464H699.162V442.112H699.018L689.466 455.456L679.914 442.112H679.77V464ZM720.879 464H713.967V430.4H720.879V464ZM735.549 464H728.733V430.4H734.733L749.661 451.76H749.853V430.4H756.621V464H750.669L735.693 442.64H735.549V464ZM771.411 464H764.499V430.4H771.411V443.696H784.035V430.4H790.947V464H784.035V450.128H771.411V464Z" fill="#1F366C"/>
<defs>
<clipPath id="clip0_761_4462">
<rect width="992" height="275" fill="white" transform="translate(6)"/>
</clipPath>
</defs>
</svg>
